<?xml version="1.0" encoding="utf-8"?>
<!-- Generator: Adobe Illustrator 16.0.0, SVG Export Plug-In . SVG Version: 6.00 Build 0)  -->
<!DOCTYPE svg PUBLIC "-//W3C//DTD SVG 1.1//EN" "http://www.w3.org/Graphics/SVG/1.1/DTD/svg11.dtd">
<svg version="1.1" id="Layer_1" xmlns="http://www.w3.org/2000/svg" xmlns:xlink="http://www.w3.org/1999/xlink" x="0px" y="0px"
	 width="35px" height="35px" viewBox="0 0 35 35" enable-background="new 0 0 35 35" xml:space="preserve">
<path fill="#FFFFFF" d="M22.773,17.501l8.459-8.459c1.456-1.457,1.456-3.816,0-5.273c-1.457-1.456-3.817-1.457-5.273,0L17.5,12.228
	L9.041,3.768c-1.456-1.456-3.817-1.456-5.273,0s-1.456,3.817,0,5.273l8.459,8.459L3.767,25.96c-1.456,1.456-1.456,3.817,0,5.273
	c1.456,1.456,3.817,1.456,5.273,0l8.459-8.459l8.459,8.459c1.457,1.456,3.816,1.456,5.273,0c1.456-1.457,1.456-3.817,0-5.273
	L22.773,17.501z"/>
</svg>
