<?xml version="1.0" encoding="utf-8"?>
<!-- Generator: Adobe Illustrator 16.0.0, SVG Export Plug-In . SVG Version: 6.00 Build 0)  -->
<!DOCTYPE svg PUBLIC "-//W3C//DTD SVG 1.1//EN" "http://www.w3.org/Graphics/SVG/1.1/DTD/svg11.dtd">
<svg version="1.1" id="Layer_1" xmlns="http://www.w3.org/2000/svg" xmlns:xlink="http://www.w3.org/1999/xlink" x="0px" y="0px"
	 width="50px" height="50px" viewBox="0 0 50 50" enable-background="new 0 0 50 50" xml:space="preserve">
<path fill="#FFFFFF" d="M11.953,9.497c2.944,1.172,2.625,4.11,2.625,7.55H3.266c0-3.386-0.289-6.286,2.583-7.494
	c0,0,1.042,1.119,2.979,1.119S11.953,9.497,11.953,9.497z"/>
<path fill="#FFFFFF" d="M12.479,39.121c2.944,1.172,4.225,4.486,4.225,7.926H0.953c0-3.387,1.378-6.717,4.25-7.926
	c0,0,1.688,1.551,3.625,1.551S12.479,39.121,12.479,39.121z"/>
<circle fill="#FFFFFF" cx="8.828" cy="35.119" r="4.001"/>
<path fill="#FFFFFF" d="M27.479,39.121c2.944,1.172,4.225,4.486,4.225,7.926h-15.75c0-3.387,1.378-6.717,4.25-7.926
	c0,0,1.688,1.551,3.625,1.551S27.479,39.121,27.479,39.121z"/>
<circle fill="#FFFFFF" cx="23.828" cy="35.119" r="4.002"/>
<path fill="#FFFFFF" d="M42.479,39.121c2.944,1.172,4.225,4.486,4.225,7.926h-15.75c0-3.387,1.378-6.717,4.25-7.926
	c0,0,1.688,1.551,3.625,1.551S42.479,39.121,42.479,39.121z"/>
<circle fill="#FFFFFF" cx="38.828" cy="35.119" r="4.002"/>
<path fill="#FFFFFF" d="M19.953,20.015"/>
<path fill="#FFFFFF" d="M47.203,20.015"/>
<path fill="#FFFFFF" d="M47.203,20.015V8.39c0-2.209,0.418-4-1.791-4H21.744c-2.209,0-1.791,1.791-1.791,4v11.625H47.203z"/>
<rect x="18.109" y="20.953" fill="#FFFFFF" width="30.938" height="1.688"/>
<rect x="0.953" y="18.182" fill="#FFFFFF" width="15.75" height="1.833"/>
<rect x="2.453" y="20.015" fill="#FFFFFF" width="13" height="9.334"/>
<circle fill="#FFFFFF" cx="8.828" cy="6.225" r="3.271"/>
</svg>
