<?xml version="1.0" encoding="utf-8"?>
<!-- Generator: Adobe Illustrator 16.0.0, SVG Export Plug-In . SVG Version: 6.00 Build 0)  -->
<!DOCTYPE svg PUBLIC "-//W3C//DTD SVG 1.1//EN" "http://www.w3.org/Graphics/SVG/1.1/DTD/svg11.dtd">
<svg version="1.1" id="Layer_1" xmlns="http://www.w3.org/2000/svg" xmlns:xlink="http://www.w3.org/1999/xlink" x="0px" y="0px"
	 width="50px" height="50px" viewBox="0 0 50 50" enable-background="new 0 0 50 50" xml:space="preserve">
<path fill="#FFFFFF" d="M38.089,28.557V8.15c0-2.453-1.988-4.441-4.441-4.441H18.509c-2.146,0-2.813,0.592-2.813,0.592l-8.883,8.735
	c-1.037,1.185-0.667,3.257-0.667,3.257V41.85c0,2.453,1.989,4.441,4.442,4.441h23.059c0.124,0,0.24-0.027,0.361-0.035
	c0.238,0.018,0.478,0.035,0.721,0.035c5.075,0,9.188-4.113,9.188-9.188C43.918,33.215,41.5,29.9,38.089,28.557z M17.699,7.314v7.165
	h-7.287L17.699,7.314z M10.588,42.738c-0.49,0-0.889-0.398-0.889-0.889V17.089h8.125c0,0,1,0.056,1.832-0.722
	c0.833-0.777,0.667-1.554,0.667-1.554l0.012-7.551h13.312c0.49,0,0.888,0.398,0.888,0.888v19.773
	c-4.984,0.105-8.994,4.17-8.994,9.18c0,2.125,0.728,4.078,1.941,5.635H10.588z M34.729,44.07c-3.842,0-6.968-3.125-6.968-6.967
	s3.126-6.969,6.968-6.969c3.843,0,6.968,3.127,6.968,6.969S38.572,44.07,34.729,44.07z"/>
<path fill="#FFFFFF" d="M31.76,21.586c0,1.165-0.945,2.11-2.11,2.11H14.216c-1.165,0-2.11-0.945-2.11-2.11l0,0
	c0-1.165,0.945-2.109,2.11-2.109h15.434C30.814,19.477,31.76,20.421,31.76,21.586L31.76,21.586z"/>
<path fill="#FFFFFF" d="M24.653,35.799c0,1.164-0.945,2.109-2.11,2.109h-8.328c-1.165,0-2.11-0.945-2.11-2.109l0,0
	c0-1.166,0.945-2.109,2.11-2.109h8.328C23.708,33.689,24.653,34.633,24.653,35.799L24.653,35.799z"/>
<path fill="#FFFFFF" d="M27.873,28.691c0,1.166-0.944,2.109-2.109,2.109H14.216c-1.165,0-2.11-0.943-2.11-2.109l0,0
	c0-1.164,0.945-2.109,2.11-2.109h11.548C26.929,26.582,27.873,27.527,27.873,28.691L27.873,28.691z"/>
<g>
	<path fill="#FFFFFF" d="M37.674,32.061c-0.721-0.639-1.691-0.957-2.912-0.957c-1.161,0-2.097,0.315-2.811,0.945
		c-0.715,0.631-1.099,1.397-1.154,2.301l1.952,0.242c0.136-0.631,0.386-1.1,0.749-1.408c0.363-0.307,0.814-0.461,1.354-0.461
		c0.559,0,1.004,0.147,1.335,0.442c0.33,0.295,0.496,0.649,0.496,1.063c0,0.298-0.094,0.569-0.28,0.817
		c-0.121,0.156-0.492,0.486-1.112,0.991c-0.62,0.504-1.034,0.957-1.24,1.361c-0.208,0.403-0.311,0.918-0.311,1.544
		c0,0.061,0.002,0.229,0.008,0.507h1.929c-0.01-0.586,0.039-0.992,0.148-1.219c0.108-0.227,0.387-0.527,0.835-0.9
		c0.868-0.722,1.435-1.291,1.699-1.71c0.265-0.418,0.397-0.862,0.397-1.331C38.757,33.441,38.396,32.698,37.674,32.061z"/>
	<circle fill="#FFFFFF" cx="34.776" cy="41.845" r="1.393"/>
</g>
</svg>
