<?xml version="1.0" encoding="utf-8"?>
<!-- Generator: Adobe Illustrator 16.0.0, SVG Export Plug-In . SVG Version: 6.00 Build 0)  -->
<!DOCTYPE svg PUBLIC "-//W3C//DTD SVG 1.1//EN" "http://www.w3.org/Graphics/SVG/1.1/DTD/svg11.dtd">
<svg version="1.1" id="Layer_1" xmlns="http://www.w3.org/2000/svg" xmlns:xlink="http://www.w3.org/1999/xlink" x="0px" y="0px"
	 width="35px" height="35px" viewBox="0 0 35 35" enable-background="new 0 0 35 35" xml:space="preserve">
<path d="M4.555,32.844c-0.622,0-1.207-0.241-1.649-0.679c-0.918-0.908-0.926-2.396-0.017-3.314l10.083-10.188
	c-1.099-1.725-1.677-3.707-1.677-5.758c0-5.926,4.821-10.747,10.747-10.747c5.927,0,10.748,4.821,10.748,10.747
	c0,5.925-4.821,10.747-10.748,10.747c-2.051,0-4.031-0.577-5.754-1.675L6.221,32.147C5.777,32.597,5.186,32.844,4.555,32.844z
	 M22.041,6.491c-3.536,0-6.412,2.876-6.412,6.413s2.876,6.413,6.412,6.413c3.537,0,6.414-2.876,6.414-6.413
	S25.578,6.491,22.041,6.491z"/>
</svg>
