<?xml version="1.0" encoding="utf-8"?>
<!-- Generator: Adobe Illustrator 16.0.0, SVG Export Plug-In . SVG Version: 6.00 Build 0)  -->
<!DOCTYPE svg PUBLIC "-//W3C//DTD SVG 1.1//EN" "http://www.w3.org/Graphics/SVG/1.1/DTD/svg11.dtd">
<svg version="1.1" id="Layer_1" xmlns="http://www.w3.org/2000/svg" xmlns:xlink="http://www.w3.org/1999/xlink" x="0px" y="0px"
	 width="35px" height="35px" viewBox="0 0 35 35" enable-background="new 0 0 35 35" xml:space="preserve">
<path d="M31,7.978c0,1.575-1.296,2.852-2.894,2.852H6.977c-1.598,0-2.893-1.277-2.893-2.852l0,0c0-1.575,1.295-2.853,2.893-2.853
	h21.13C29.704,5.125,31,6.402,31,7.978L31,7.978z"/>
<path d="M31,17.312c0,1.575-1.296,2.853-2.894,2.853H6.977c-1.598,0-2.893-1.277-2.893-2.853l0,0c0-1.575,1.295-2.853,2.893-2.853
	h21.13C29.704,14.46,31,15.737,31,17.312L31,17.312z"/>
<path d="M31,26.647c0,1.575-1.296,2.853-2.894,2.853H6.977c-1.598,0-2.893-1.277-2.893-2.853l0,0c0-1.575,1.295-2.853,2.893-2.853
	h21.13C29.704,23.795,31,25.072,31,26.647L31,26.647z"/>
</svg>
