<?xml version="1.0" encoding="utf-8"?>
<!-- Generator: Adobe Illustrator 16.0.0, SVG Export Plug-In . SVG Version: 6.00 Build 0)  -->
<!DOCTYPE svg PUBLIC "-//W3C//DTD SVG 1.1//EN" "http://www.w3.org/Graphics/SVG/1.1/DTD/svg11.dtd">
<svg version="1.1" id="Layer_1" xmlns="http://www.w3.org/2000/svg" xmlns:xlink="http://www.w3.org/1999/xlink" x="0px" y="0px"
	 width="60px" height="60px" viewBox="0 0 60 60" enable-background="new 0 0 60 60" xml:space="preserve">
<path fill="#231F20" d="M51.554,14.368c0.162,0.947,0.265,1.915,0.265,2.908v8.272c0,9.527-7.75,17.276-17.277,17.276H22.35
	c-0.881,0.901-2.249,2.191-4.026,3.545c1.826,0.889,3.869,1.402,6.037,1.402h13.706c0,0,3.973,4.78,10.294,7.72l-0.066-8.124
	c0.001-0.041,0.004-0.082,0.006-0.125l0.231-0.365c5.212-1.98,8.915-7.02,8.915-12.927v-8.271
	C57.446,20.998,55.114,16.868,51.554,14.368z"/>
<path d="M10.603,38.841l-0.231-0.367c-5.213-1.979-8.916-7.019-8.916-12.925v-8.272c0-7.633,6.188-13.821,13.821-13.821h19.265
	c7.633,0,13.821,6.188,13.821,13.821v8.272c0,7.633-6.188,13.821-13.821,13.821H20.837c0,0-2.889,4.405-10.297,6.727"/>
<circle fill="#FFFFFF" cx="12.253" cy="21.308" r="4.175"/>
<circle fill="#FFFFFF" cx="24.922" cy="21.308" r="4.175"/>
<circle fill="#FFFFFF" cx="37.592" cy="21.308" r="4.175"/>
</svg>
