<?xml version="1.0" encoding="utf-8"?>
<!-- Generator: Adobe Illustrator 16.0.0, SVG Export Plug-In . SVG Version: 6.00 Build 0)  -->
<!DOCTYPE svg PUBLIC "-//W3C//DTD SVG 1.1//EN" "http://www.w3.org/Graphics/SVG/1.1/DTD/svg11.dtd">
<svg version="1.1" id="Layer_1" xmlns="http://www.w3.org/2000/svg" xmlns:xlink="http://www.w3.org/1999/xlink" x="0px" y="0px"
	 width="50px" height="50px" viewBox="0 0 50 50" enable-background="new 0 0 50 50" xml:space="preserve">
<path fill="#FFFFFF" d="M43.582,26.834v8.291c0,0,0.167,0.875,1.167,0.875c0,0,3.042,0.291,2.917-1.542l-2.041-7.624
	c0,0-0.173-0.803-1.126-0.553C44.499,26.281,43.696,26.417,43.582,26.834z"/>
<path fill="#FFFFFF" d="M40.332,25.031h1.104c0,0,1.594,0.5,1.594,1.344s0,8.656,0,8.656l0.552,5.553l2.959,5.833
	c0,0,0.207,1.375-0.584,1.875s-1.875-0.5-1.875-0.5l-2.875-6.5l-0.875-3.75l-3,3l-0.75,6.792c0,0-0.416,0.875-1.583,0.583
	s-1-1.125-1-1.125L34.832,40l3.625-4.625l0.125-6.041c0,0-0.209,0.542-0.625,0.833l-2.458,2.375c0,0-0.751,0.958-1.917,0.25
	s0-1.417,0-1.417l2.667-2.584l1.417-2.833c0,0,0.291-0.646,2.5-0.927"/>
<circle fill="#FFFFFF" cx="40.332" cy="20" r="3.75"/>
<path fill="#FFFFFF" d="M28.583,13.25h-5.375v-1.54l-7.333-4l-7.333,4v1.54H3.167c-0.552,0-1,0.448-1,1v15.334h27.417V14.25
	C29.583,13.698,29.136,13.25,28.583,13.25z M8.625,26h-3.5v-3.5h3.5V26z M8.625,20h-3.5v-3.5h3.5V20z M14.625,26h-3.5v-3.5h3.5V26z
	 M14.625,20h-3.5v-3.5h3.5V20z M13.688,12.414c0-1.208,0.979-2.188,2.188-2.188s2.188,0.979,2.188,2.188s-0.979,2.188-2.188,2.188
	S13.688,13.622,13.688,12.414z M20.625,26h-3.5v-3.5h3.5V26z M20.625,20h-3.5v-3.5h3.5V20z M26.625,26h-3.5v-3.5h3.5V26z M26.625,20
	h-3.5v-3.5h3.5V20z"/>
<polygon fill="#FFFFFF" points="16.213,5.717 16.213,1.156 15.538,1.156 15.538,5.717 7.112,10.329 7.112,11.726 15.875,6.833 
	24.638,11.726 24.638,10.329 "/>
<path fill="#FFFFFF" d="M16.484,1.156v2.734c0,0,0.781-0.516,1.547,0s1.641,0,1.641,0s0.703-0.516,1.5,0V1.156
	c0,0-0.766-0.594-1.594,0s-1.469,0-1.469,0S17.281,0.625,16.484,1.156z"/>
</svg>
